<svg xmlns="http://www.w3.org/2000/svg" xmlns:xlink="http://www.w3.org/1999/xlink" version="1.1" width="256" height="256" viewBox="0 0 256 256" xml:space="preserve">

<defs>
</defs>
<g style="stroke: none; stroke-width: 0; stroke-dasharray: none; stroke-linecap: butt; stroke-linejoin: miter; stroke-miterlimit: 10; fill: none; fill-rule: nonzero; opacity: 1;" transform="translate(1.4065934065934016 1.4065934065934016) scale(2.81 2.81)" >
	<path d="M 64.828 46.968 H 64.42 c -0.85 0 -1.661 0.172 -2.399 0.482 c -0.679 -2.694 -3.122 -4.693 -6.023 -4.693 h -0.408 c -0.994 0 -1.935 0.235 -2.77 0.652 c -0.979 -2.146 -3.145 -3.641 -5.653 -3.641 h -0.408 c -0.778 0 -1.524 0.144 -2.211 0.407 v -8.391 c 0 -3.425 -2.786 -6.211 -6.211 -6.211 h -0.409 c -3.425 0 -6.211 2.786 -6.211 6.211 v 22.09 l -2.678 2.034 c -2.226 1.689 -3.637 4.147 -3.973 6.922 c -0.336 2.773 0.447 5.497 2.204 7.669 l 8.534 10.55 v 4.152 c 0 2.646 2.153 4.799 4.799 4.799 h 21.398 c 2.646 0 4.799 -2.152 4.799 -4.799 l 0.001 -3.939 c 2.739 -3.465 4.24 -7.755 4.24 -12.164 V 53.179 C 71.039 49.754 68.253 46.968 64.828 46.968 z M 67.039 69.098 c 0 3.708 -1.336 7.313 -3.761 10.147 c -0.311 0.362 -0.48 0.823 -0.48 1.3 v 4.656 c 0 0.44 -0.358 0.799 -0.799 0.799 H 40.601 c -0.44 0 -0.799 -0.358 -0.799 -0.799 v -4.86 c 0 -0.458 -0.157 -0.901 -0.445 -1.258 l -8.979 -11.1 c -1.07 -1.323 -1.547 -2.982 -1.342 -4.672 c 0.205 -1.69 1.064 -3.188 2.42 -4.218 l 0.26 -0.197 v 4.677 c 0 1.104 0.896 2 2 2 s 2 -0.896 2 -2 v -8.687 c 0 -0.015 0 -0.028 0 -0.042 V 31.784 c 0 -1.219 0.992 -2.211 2.211 -2.211 h 0.409 c 1.219 0 2.211 0.992 2.211 2.211 v 14.195 c 0 0 0 0 0 0.001 s 0 0 0 0.001 l 0.009 11.807 c 0.001 1.104 0.896 1.998 2 1.998 c 0 0 0.001 0 0.001 0 c 1.104 -0.001 2 -0.896 1.999 -2.002 l -0.009 -11.805 c 0 -1.219 0.992 -2.211 2.211 -2.211 h 0.408 c 1.219 0 2.211 0.992 2.211 2.211 v 2.988 c 0 0 0 0.001 0 0.001 c 0 0 0 0.001 0 0.001 l 0.009 8.818 c 0.001 1.104 0.896 1.998 2 1.998 c 0.001 0 0.001 0 0.002 0 c 1.104 -0.001 1.999 -0.897 1.998 -2.002 l -0.009 -8.816 c 0 -1.219 0.992 -2.211 2.212 -2.211 h 0.408 c 1.219 0 2.211 0.992 2.211 2.211 v 3.739 c -0.005 0.059 -0.018 0.117 -0.018 0.178 l 0.009 4.905 c 0.002 1.104 0.897 1.996 2 1.996 c 0.001 0 0.002 0 0.004 0 c 1.104 -0.002 1.998 -0.899 1.996 -2.004 l -0.008 -4.438 c 0.005 -0.056 0.017 -0.109 0.017 -0.166 c 0 -1.219 0.992 -2.211 2.212 -2.211 h 0.408 c 1.219 0 2.211 0.992 2.211 2.211 V 69.098 z" style="stroke: none; stroke-width: 1; stroke-dasharray: none; stroke-linecap: butt; stroke-linejoin: miter; stroke-miterlimit: 10; fill: rgb(9,96,125); fill-rule: nonzero; opacity: 1;" transform=" matrix(1 0 0 1 0 0) " stroke-linecap="round" />
	<path d="M 20.961 60.09 c -1.104 0 -2 -0.896 -2 -2 V 5.117 C 18.961 2.295 21.256 0 24.078 0 h 27.685 c 2.821 0 5.117 2.295 5.117 5.117 v 32.48 c 0 1.104 -0.896 2 -2 2 s -2 -0.896 -2 -2 V 5.117 C 52.88 4.501 52.379 4 51.763 4 H 24.078 c -0.616 0 -1.117 0.501 -1.117 1.117 V 58.09 C 22.961 59.194 22.065 60.09 20.961 60.09 z" style="stroke: none; stroke-width: 1; stroke-dasharray: none; stroke-linecap: butt; stroke-linejoin: miter; stroke-miterlimit: 10; fill: rgb(0,176,102); fill-rule: nonzero; opacity: 1;" transform=" matrix(1 0 0 1 0 0) " stroke-linecap="round" />
	<path d="M 44.168 13.597 H 31.672 c -1.104 0 -2 -0.896 -2 -2 s 0.896 -2 2 -2 h 12.497 c 1.104 0 2 0.896 2 2 S 45.273 13.597 44.168 13.597 z" style="stroke: none; stroke-width: 1; stroke-dasharray: none; stroke-linecap: butt; stroke-linejoin: miter; stroke-miterlimit: 10; fill: rgb(0,176,102); fill-rule: nonzero; opacity: 1;" transform=" matrix(1 0 0 1 0 0) " stroke-linecap="round" />
</g>
</svg>